<?xml version="1.0" encoding="utf-8"?>
<!-- Generator: Adobe Illustrator 16.0.0, SVG Export Plug-In . SVG Version: 6.00 Build 0)  -->
<!DOCTYPE svg PUBLIC "-//W3C//DTD SVG 1.1//EN" "http://www.w3.org/Graphics/SVG/1.1/DTD/svg11.dtd">
<svg version="1.1" id="Layer_1" xmlns="http://www.w3.org/2000/svg" xmlns:xlink="http://www.w3.org/1999/xlink" x="0px" y="0px"
	 width="1000px" height="430.521px" viewBox="0 180.74 1000 430.521" enable-background="new 0 180.74 1000 430.521"
	 xml:space="preserve">
<g>
	<g>
		<path fill="#2C3280" d="M59.627,561.703h27.228c13.041,0,23.353-3.227,30.846-9.604c7.493-6.453,11.232-15.229,11.232-26.459
			c0-10.977-3.679-19.435-10.976-25.419c-7.282-6.001-17.669-8.972-31.087-8.972H59.627V561.703L59.627,561.703z M59.627,445.571
			h21.74c12.845,0,22.841-2.834,30.138-8.458c7.222-5.607,10.84-13.553,10.84-23.745c0-10.267-3.422-17.744-10.327-22.522
			c-6.83-4.84-17.549-7.223-32.203-7.223H59.627V445.571L59.627,445.571z M0,611.26V337.172h84.714
			c31.947,0,56.009,5.804,72.321,17.487c16.328,11.669,24.515,28.978,24.515,51.938c0,14.006-3.739,25.871-11.157,35.609
			c-7.493,9.814-18.71,17.354-33.741,22.78c16.705,3.814,29.746,11.548,39.229,23.354c9.483,11.806,14.202,26.203,14.202,43.164
			c0,26.322-9.755,46.193-29.233,59.627c-19.479,13.418-48.32,20.143-86.523,20.143H0V611.26z"/>
	</g>
	<g>
		<polygon fill="#2C3280" points="482.142,611.26 482.142,337.172 546.789,337.172 546.789,456.471 637.308,337.172 
			715.192,337.172 611.829,467.568 723.318,611.26 644.349,611.26 546.789,484.994 546.789,611.26 		"/>
	</g>
	<g>
		<polygon fill="#2C3280" points="782.645,611.26 782.645,394.462 694.463,394.462 739.888,337.172 917.307,337.172 
			917.307,394.462 848.075,394.462 848.075,611.26 		"/>
	</g>
	<g>
		<polygon fill="#2C3280" points="934.568,611.26 934.568,337.172 1000,337.172 1000,611.26 		"/>
	</g>
	<g>
		<polygon fill="#C42127" points="465.528,611.26 399.644,611.26 325.71,461.808 251.76,611.26 185.876,611.26 325.71,328.654 		"/>
	</g>
	<g>
		<path fill="#2C3280" d="M325.71,267.64v26.082c24.001,0,43.45,19.448,43.45,43.45h26.082
			C395.227,298.773,364.109,267.64,325.71,267.64L325.71,267.64z"/>
	</g>
	<g>
		<path fill="#C42127" d="M325.71,250.257c48.003,0,86.9,38.912,86.9,86.915h26.067c0-62.401-50.581-112.982-112.982-112.982
			c-62.401,0-112.982,50.581-112.982,112.982h26.067C238.794,289.169,277.707,250.257,325.71,250.257L325.71,250.257z"/>
	</g>
	<g>
		<path fill="#2C3280" d="M325.71,180.74c86.402,0,156.432,70.03,156.432,156.434H456.06c0-72.005-58.359-130.352-130.365-130.352
			V180.74H325.71z"/>
	</g>
</g>
</svg>
